<svg xmlns="http://www.w3.org/2000/svg" viewBox="0 0 1200 760">
  <defs>
    <linearGradient id="edge" x1="0" x2="1"><stop stop-color="#00D4FF"/><stop offset=".48" stop-color="#5B7CFF"/><stop offset="1" stop-color="#8B5CF6"/></linearGradient>
    <linearGradient id="cta" x1="0" x2="1"><stop stop-color="#5B7CFF"/><stop offset="1" stop-color="#8B5CF6"/></linearGradient>
    <radialGradient id="glow" cx="72%" cy="22%" r="56%"><stop stop-color="rgba(91,124,255,.32)"/><stop offset=".55" stop-color="rgba(0,212,255,.08)"/><stop offset="1" stop-color="rgba(0,0,0,0)"/></radialGradient>
    <pattern id="grid" width="24" height="24" patternUnits="userSpaceOnUse"><path d="M24 0H0v24" fill="none" stroke="#fff" stroke-opacity=".035"/></pattern>
    <filter id="soft"><feDropShadow dx="0" dy="24" stdDeviation="30" flood-color="#000" flood-opacity=".45"/><feDropShadow dx="0" dy="0" stdDeviation="18" flood-color="#5B7CFF" flood-opacity=".2"/></filter>
    <filter id="card"><feDropShadow dx="0" dy="14" stdDeviation="20" flood-color="#000" flood-opacity=".28"/></filter>
  </defs>
  <rect width="1200" height="760" rx="34" fill="#050507"/>
  <rect x="18" y="18" width="1164" height="724" rx="30" fill="#0b0d12" filter="url(#soft)"/>
  <rect x="18" y="18" width="1164" height="724" rx="30" fill="url(#grid)" opacity=".7"/>
  <rect x="18" y="18" width="1164" height="724" rx="30" fill="url(#glow)"/>
  <path d="M18 78H1182" stroke="#fff" stroke-opacity=".06"/>
  <circle cx="1128" cy="48" r="4" fill="#6f7a91"/><path d="M1152 43l10 10m0-10-10 10" stroke="#6f7a91" stroke-width="2" stroke-linecap="round"/>

  <rect x="42" y="42" width="232" height="676" rx="24" fill="rgba(9,11,17,.78)" stroke="rgba(255,255,255,.08)"/>
  <g transform="translate(62 62) scale(.105)">
  <defs>
    <linearGradient id="m-signal" x1="0" y1="0" x2="1" y2="0">
      <stop offset="0" stop-color="#00D4FF"/>
      <stop offset="0.46" stop-color="#5B7CFF"/>
      <stop offset="1" stop-color="#8B5CF6"/>
    </linearGradient>
    <linearGradient id="m-signal-v" x1="0" y1="0" x2="0" y2="1">
      <stop offset="0" stop-color="#00D4FF"/>
      <stop offset="0.55" stop-color="#5B7CFF"/>
      <stop offset="1" stop-color="#8B5CF6"/>
    </linearGradient>
    <filter id="m-glow" x="-80%" y="-80%" width="260%" height="260%">
      <feGaussianBlur stdDeviation="7" result="b"/>
      <feMerge><feMergeNode in="b"/><feMergeNode in="SourceGraphic"/></feMerge>
    </filter>
    <filter id="m-soft" x="-40%" y="-40%" width="180%" height="180%">
      <feDropShadow dx="0" dy="10" stdDeviation="18" flood-color="#5B7CFF" flood-opacity="0.34"/>
      <feDropShadow dx="0" dy="0" stdDeviation="9" flood-color="#00D4FF" flood-opacity="0.16"/>
    </filter>
    <pattern id="m-scan" width="10" height="10" patternUnits="userSpaceOnUse">
      <path d="M0 0H10M0 0V10" stroke="#ffffff" stroke-opacity="0.035" stroke-width="1"/>
    </pattern>
  </defs><rect width="512" height="512" fill="none"/><g transform="translate(0 0) scale(1)" filter="url(#m-soft)">
    <circle cx="256" cy="256" r="170" fill="none" stroke="url(#m-signal)" stroke-opacity="0.26" stroke-width="8"/>
    <circle cx="256" cy="256" r="120" fill="none" stroke="url(#m-signal)" stroke-opacity="0.18" stroke-width="4" stroke-dasharray="18 18"/>
    <path d="M78 210h58l28-46 37 160 42-246 43 300 38-178 30 84h78" fill="none" stroke="url(#m-signal)" stroke-width="28" stroke-linecap="round" stroke-linejoin="round"/>
    <path d="M92 314h94M326 314h94" stroke="#FF6A00" stroke-width="14" stroke-linecap="round" opacity="0.82"/>
    <path d="M256 108v296" stroke="url(#m-signal-v)" stroke-width="16" stroke-linecap="round" opacity="0.92"/>
    <path d="M220 414h72M256 414v44" stroke="#00D4FF" stroke-width="14" stroke-linecap="round"/>
    <path d="M166 132 108 190l58 58M346 132l58 58-58 58" fill="none" stroke="url(#m-signal)" stroke-width="20" stroke-linecap="round" stroke-linejoin="round" opacity="0.9"/>
    <circle cx="256" cy="256" r="22" fill="#060608" stroke="#f0eee8" stroke-opacity="0.82" stroke-width="8"/>
  </g></g>
  <text x="118" y="83" fill="#f0eee8" font-family="Segoe UI, Arial, sans-serif" font-size="20" font-weight="800">Plyrium Echo</text>
  <circle cx="120" cy="106" r="4" fill="#00E676"/><text x="132" y="112" fill="#a8b0c2" font-family="Consolas, monospace" font-size="12" letter-spacing="1.4">LOCAL / OFFLINE</text>
  <g><rect x="62" y="142" width="172" height="42" rx="12" fill="rgba(91,124,255,.18)" stroke="rgba(91,124,255,.34)"/><svg x="78" y="152" width="22" height="22" viewBox="0 0 32 32"><path d="M 7 14 L 16 7 L 25 14 V 25 H 10 V 18 H 22" fill="none" stroke="#00D4FF" stroke-width="2.4" stroke-linecap="round" stroke-linejoin="round"/></svg><text x="112" y="169" fill="#f0eee8" font-family="Segoe UI, Arial, sans-serif" font-size="16" font-weight="700">Home</text></g><g><rect x="62" y="200" width="172" height="42" rx="12" fill="transparent" stroke="transparent"/><svg x="78" y="210" width="22" height="22" viewBox="0 0 32 32"><path d="M16 5a11 11 0 1 0 11 11M16 10v7l5 3" fill="none" stroke="#6f7a91" stroke-width="2.4" stroke-linecap="round" stroke-linejoin="round"/></svg><text x="112" y="227" fill="#a8b0c2" font-family="Segoe UI, Arial, sans-serif" font-size="16" font-weight="500">History</text></g><g><rect x="62" y="258" width="172" height="42" rx="12" fill="transparent" stroke="transparent"/><svg x="78" y="268" width="22" height="22" viewBox="0 0 32 32"><path d="M8 6h15a3 3 0 0 1 3 3v18H11a3 3 0 0 0-3 3V6zm0 0a3 3 0 0 0-3 3v18a3 3 0 0 1 3-3" fill="none" stroke="#6f7a91" stroke-width="2.4" stroke-linecap="round" stroke-linejoin="round"/></svg><text x="112" y="285" fill="#a8b0c2" font-family="Segoe UI, Arial, sans-serif" font-size="16" font-weight="500">Dictionary</text></g><g><rect x="62" y="316" width="172" height="42" rx="12" fill="transparent" stroke="transparent"/><svg x="78" y="326" width="22" height="22" viewBox="0 0 32 32"><path d="M17 5l2 4 4 1-2 4 2 4-4 1-2 4h-4l-2-4-4-1 2-4-2-4 4-1 2-4h4zm-2 10a3 3 0 1 0 0 6 3 3 0 0 0 0-6z" fill="none" stroke="#6f7a91" stroke-width="2.4" stroke-linecap="round" stroke-linejoin="round"/></svg><text x="112" y="343" fill="#a8b0c2" font-family="Segoe UI, Arial, sans-serif" font-size="16" font-weight="500">Settings</text></g><g><rect x="62" y="374" width="172" height="42" rx="12" fill="transparent" stroke="transparent"/><svg x="78" y="384" width="22" height="22" viewBox="0 0 32 32"><path d="M16 5a11 11 0 1 0 0 22 11 11 0 0 0 0-22zm0 10v8m0-12v1" fill="none" stroke="#6f7a91" stroke-width="2.4" stroke-linecap="round" stroke-linejoin="round"/></svg><text x="112" y="401" fill="#a8b0c2" font-family="Segoe UI, Arial, sans-serif" font-size="16" font-weight="500">About</text></g>
  <rect x="66" y="628" width="164" height="54" rx="14" fill="rgba(0,230,118,.08)" stroke="rgba(0,230,118,.22)"/>
  <text x="84" y="651" fill="#00E676" font-family="Consolas, monospace" font-size="12" font-weight="800">MODEL READY</text>
  <text x="84" y="669" fill="#a8b0c2" font-family="Consolas, monospace" font-size="11">large-v3-turbo / CUDA</text>

  <g transform="translate(318 102)">
    <text x="0" y="0" fill="#f0eee8" font-family="Segoe UI, Arial, sans-serif" font-size="36" font-weight="850">Good morning, Mordiaky</text>
    <text x="0" y="34" fill="#a8b0c2" font-family="Consolas, monospace" font-size="14">Hold ctrl+win, speak, release. Echo cleans it locally.</text>
    <rect x="694" y="-26" width="126" height="38" rx="19" fill="rgba(0,230,118,.1)" stroke="rgba(0,230,118,.26)"/>
    <circle cx="716" cy="-7" r="5" fill="#00E676"/><text x="730" y="-2" fill="#00E676" font-family="Consolas, monospace" font-size="13" font-weight="800">PRIVATE</text>
  </g>

  <g transform="translate(318 188)">
    <g transform="translate(0 0)" filter="url(#card)"><rect width="226" height="120" rx="18" fill="rgba(17,20,27,.86)" stroke="rgba(255,255,255,.1)"/><rect x="0" y="0" width="226" height="3" rx="2" fill="#00D4FF"/><text x="22" y="36" fill="#a8b0c2" font-family="Consolas, monospace" font-size="12">Total words dictated</text><text x="22" y="82" fill="#f0eee8" font-family="Segoe UI, Arial, sans-serif" font-size="36" font-weight="850">1,385</text></g><g transform="translate(258 0)" filter="url(#card)"><rect width="226" height="120" rx="18" fill="rgba(17,20,27,.86)" stroke="rgba(255,255,255,.1)"/><rect x="0" y="0" width="226" height="3" rx="2" fill="#5B7CFF"/><text x="22" y="36" fill="#a8b0c2" font-family="Consolas, monospace" font-size="12">Dictations</text><text x="22" y="82" fill="#f0eee8" font-family="Segoe UI, Arial, sans-serif" font-size="36" font-weight="850">55</text></g><g transform="translate(516 0)" filter="url(#card)"><rect width="226" height="120" rx="18" fill="rgba(17,20,27,.86)" stroke="rgba(255,255,255,.1)"/><rect x="0" y="0" width="226" height="3" rx="2" fill="#8B5CF6"/><text x="22" y="36" fill="#a8b0c2" font-family="Consolas, monospace" font-size="12">Typing time saved</text><text x="22" y="82" fill="#f0eee8" font-family="Segoe UI, Arial, sans-serif" font-size="36" font-weight="850">35 min</text></g>
  </g>

  <g transform="translate(318 352)">
    <rect width="518" height="204" rx="24" fill="rgba(17,20,27,.72)" stroke="rgba(255,255,255,.1)"/>
    <text x="28" y="42" fill="#f0eee8" font-family="Segoe UI, Arial, sans-serif" font-size="20" font-weight="800">Live voice lane</text>
    <text x="28" y="70" fill="#a8b0c2" font-family="Consolas, monospace" font-size="13">Your voice becomes clean text in any app.</text>
    <path d="M34 132h58l24-46 30 96 38-148 42 168 34-100 28 52h90" fill="none" stroke="url(#edge)" stroke-width="12" stroke-linecap="round" stroke-linejoin="round"/>
    <rect x="28" y="154" width="148" height="30" rx="15" fill="url(#cta)"/><text x="54" y="174" fill="white" font-family="Segoe UI, Arial, sans-serif" font-size="13" font-weight="800">Listening idle</text>
    <text x="296" y="174" fill="#00E676" font-family="Consolas, monospace" font-size="12" font-weight="800">voice stays local</text>
  </g>

  <g transform="translate(866 340)">
    <circle cx="118" cy="118" r="112" fill="rgba(91,124,255,.06)" stroke="rgba(91,124,255,.18)"/>
    <circle cx="118" cy="118" r="78" fill="rgba(0,212,255,.04)" stroke="rgba(0,212,255,.18)"/>
    <g transform="translate(10 10) scale(.42)">
  <defs>
    <linearGradient id="m-signal" x1="0" y1="0" x2="1" y2="0">
      <stop offset="0" stop-color="#00D4FF"/>
      <stop offset="0.46" stop-color="#5B7CFF"/>
      <stop offset="1" stop-color="#8B5CF6"/>
    </linearGradient>
    <linearGradient id="m-signal-v" x1="0" y1="0" x2="0" y2="1">
      <stop offset="0" stop-color="#00D4FF"/>
      <stop offset="0.55" stop-color="#5B7CFF"/>
      <stop offset="1" stop-color="#8B5CF6"/>
    </linearGradient>
    <filter id="m-glow" x="-80%" y="-80%" width="260%" height="260%">
      <feGaussianBlur stdDeviation="7" result="b"/>
      <feMerge><feMergeNode in="b"/><feMergeNode in="SourceGraphic"/></feMerge>
    </filter>
    <filter id="m-soft" x="-40%" y="-40%" width="180%" height="180%">
      <feDropShadow dx="0" dy="10" stdDeviation="18" flood-color="#5B7CFF" flood-opacity="0.34"/>
      <feDropShadow dx="0" dy="0" stdDeviation="9" flood-color="#00D4FF" flood-opacity="0.16"/>
    </filter>
    <pattern id="m-scan" width="10" height="10" patternUnits="userSpaceOnUse">
      <path d="M0 0H10M0 0V10" stroke="#ffffff" stroke-opacity="0.035" stroke-width="1"/>
    </pattern>
  </defs><rect width="512" height="512" fill="none"/><g transform="translate(0 0) scale(1)" filter="url(#m-soft)">
    <circle cx="256" cy="256" r="170" fill="none" stroke="url(#m-signal)" stroke-opacity="0.26" stroke-width="8"/>
    <circle cx="256" cy="256" r="120" fill="none" stroke="url(#m-signal)" stroke-opacity="0.18" stroke-width="4" stroke-dasharray="18 18"/>
    <path d="M78 210h58l28-46 37 160 42-246 43 300 38-178 30 84h78" fill="none" stroke="url(#m-signal)" stroke-width="28" stroke-linecap="round" stroke-linejoin="round"/>
    <path d="M92 314h94M326 314h94" stroke="#FF6A00" stroke-width="14" stroke-linecap="round" opacity="0.82"/>
    <path d="M256 108v296" stroke="url(#m-signal-v)" stroke-width="16" stroke-linecap="round" opacity="0.92"/>
    <path d="M220 414h72M256 414v44" stroke="#00D4FF" stroke-width="14" stroke-linecap="round"/>
    <path d="M166 132 108 190l58 58M346 132l58 58-58 58" fill="none" stroke="url(#m-signal)" stroke-width="20" stroke-linecap="round" stroke-linejoin="round" opacity="0.9"/>
    <circle cx="256" cy="256" r="22" fill="#060608" stroke="#f0eee8" stroke-opacity="0.82" stroke-width="8"/>
  </g></g>
  </g>

  <g transform="translate(318 598)">
    <rect width="780" height="70" rx="18" fill="rgba(9,11,17,.72)" stroke="rgba(255,255,255,.08)"/>
    <text x="24" y="30" fill="#6f7a91" font-family="Consolas, monospace" font-size="12">LAST CLEANUP</text>
    <text x="24" y="52" fill="#a8b0c2" font-family="Segoe UI, Arial, sans-serif" font-size="15">Removed filler, fixed punctuation, and kept your project names intact.</text>
    <text x="690" y="43" fill="#FF6A00" font-family="Consolas, monospace" font-size="18" font-weight="900">&gt;_</text>
  </g>
</svg>

